<svg width="255" height="379" viewBox="0 0 255 379" fill="none" xmlns="http://www.w3.org/2000/svg">
<path d="M161.012 0.0350594C126.89 0.994429 149.625 40.582 149.625 40.582L177.587 40.5819C177.587 40.5819 211.384 -1.3812 161.012 0.0350594Z" fill="#00306C"/>
<mask id="mask0_111:176" style="mask-type:alpha" maskUnits="userSpaceOnUse" x="145" y="7" width="40" height="42">
<rect x="145.571" y="7.80591" width="39.13" height="41.0995" rx="19.565" fill="#FDD2D5"/>
</mask>
<g mask="url(#mask0_111:176)">
<rect x="145.571" y="7.80591" width="39.13" height="41.0995" rx="19.565" fill="#FDD2D5"/>
<ellipse cx="132.528" cy="16.1299" rx="17.1935" ry="15.0872" fill="#00306C"/>
<ellipse cx="194.187" cy="19.2511" rx="13.0433" ry="11.4454" fill="#00306C"/>
<ellipse cx="164.84" cy="5.20439" rx="29.3475" ry="13.5264" fill="#00306C"/>
</g>
<ellipse cx="185.591" cy="30.4365" rx="4.44659" ry="3.90185" fill="#FDD2D5"/>
<ellipse cx="145.275" cy="29.396" rx="4.44659" ry="3.90185" fill="#FDD2D5"/>
<rect x="158.615" y="43.1826" width="14.2291" height="18.7289" fill="#FDD2D5"/>
<path d="M165.729 28.0955L163.358 31.7372H165.729" stroke="#E97E83" stroke-width="2.38857" stroke-linejoin="round"/>
<path d="M160.986 37.4597L168.936 35.8989" stroke="#E97E83" stroke-width="2.38857" stroke-linejoin="round"/>
<rect x="116.615" y="185.557" width="97.9082" height="13.1333" rx="6.56666" fill="#00306C"/>
<rect x="169.623" y="192.671" width="155.958" height="8.10704" rx="4.05352" transform="rotate(90 169.623 192.671)" fill="#00306C"/>
<rect x="192.073" y="350.818" width="53.0076" height="7.11387" rx="3.55694" transform="rotate(-180 192.073 350.818)" fill="#00306C"/>
<rect x="208.287" y="324.004" width="85.4358" height="7.11387" rx="3.55694" transform="rotate(-180 208.287 324.004)" fill="#00306C"/>
<rect width="40.1759" height="7.62664" rx="3.81332" transform="matrix(-0.751647 -0.659565 0.751647 -0.659565 212.917 374.138)" fill="#00306C"/>
<rect width="40.1759" height="7.62664" rx="3.81332" transform="matrix(0.751647 -0.659565 -0.751647 -0.659565 117.983 374.138)" fill="#00306C"/>
<ellipse rx="40.6122" ry="38.7584" transform="matrix(-1 0 0 1 169.583 94.4249)" fill="#FDD2D5"/>
<path d="M122.449 170.121C122.449 190.521 142.357 207.058 166.915 207.058C191.473 207.058 211.381 190.521 211.381 170.121C211.381 149.721 191.473 133.183 166.915 133.183C142.357 133.183 122.449 149.721 122.449 170.121Z" fill="#12243A"/>
<path d="M138.681 66.7464C132.759 63.7595 124.916 65.9831 121.162 71.713L97.8455 107.309C94.0923 113.039 95.8503 120.105 101.772 123.092C107.694 126.079 115.537 123.855 119.291 118.125L142.607 82.5294C146.361 76.7995 144.603 69.7332 138.681 66.7464Z" fill="#FDD2D5"/>
<path d="M118.977 114.332C118.368 108.537 113.039 104.304 107.264 105.027L54.3601 111.645L55.599 125.63L109.07 125.368C115.038 125.339 119.601 120.258 118.977 114.332Z" fill="#FDD2D5"/>
<path d="M175.9 66.4209C180.047 61.6582 187.872 60.789 193.377 64.4796L245.941 99.7196C251.446 103.41 252.547 110.263 248.401 115.026C244.254 119.788 236.43 120.658 230.925 116.967L178.36 81.727C172.855 78.0364 171.754 71.1836 175.9 66.4209Z" fill="#FDD2D5"/>
<path d="M40.2163 182.1C51.1627 166.25 117.347 145.782 148.032 136.989C157.189 134.365 166.815 138.569 171.335 146.953C177.19 157.815 172.264 171.353 160.798 175.912L84.7842 206.135L140.889 317.026L89.7694 329.316L95.0675 316.479C95.0675 316.479 25.8803 202.857 40.2163 182.1Z" fill="#FFD9DB"/>
<path d="M53.9436 165.167L103.59 211.186C103.59 211.186 129.087 192.139 147.897 176.202C155.39 169.853 156.321 159.332 150.632 150.904C144.365 141.62 131.897 137.527 121.314 141.279L53.9436 165.167Z" fill="#12243A"/>
<mask id="mask1_111:176" style="mask-type:alpha" maskUnits="userSpaceOnUse" x="62" y="165" width="125" height="214">
<path d="M96.9722 218.117C98.6935 209.162 129.013 184.419 147.268 170.218C155.399 163.892 166.612 163.602 175.218 169.265C190.133 179.081 189.932 201.024 174.84 210.564L141.25 231.797L118.799 379L62.3625 369.15L74.2113 358.753C74.2113 358.753 94.5003 230.977 96.9722 218.117Z" fill="#FFD9DB"/>
</mask>
<g mask="url(#mask1_111:176)">
<path d="M96.9722 218.117C98.6935 209.162 129.013 184.419 147.268 170.218C155.399 163.892 166.612 163.602 175.218 169.265C190.133 179.081 189.932 201.024 174.84 210.564L141.25 231.797L118.799 379L62.3625 369.15L74.2113 358.753C74.2113 358.753 94.5003 230.977 96.9722 218.117Z" fill="#FFD9DB"/>
<rect width="76.4798" height="16.6684" transform="matrix(0.99007 0.140575 -0.181341 0.98342 53.6493 355.743)" fill="#12243A"/>
</g>
<path d="M107.888 190.755L167.131 231.524C167.131 231.524 178.795 219.014 191.108 205.305C202.469 192.656 198.847 173.78 183.539 163.762C170.935 155.515 154.056 155.784 142.662 164.415L107.888 190.755Z" fill="#12243A"/>
<path fill-rule="evenodd" clip-rule="evenodd" d="M153.211 57.597L142.22 59.4118C131.275 61.2188 123.92 71.6235 125.866 82.5439L133.81 127.102L102.898 150.857L212.414 174.065L215.757 158.151C216.471 154.752 216.87 151.294 216.949 147.821L218.496 80.0061C218.722 70.0808 211.601 61.5063 201.802 59.9073L179.486 56.2654C179.071 56.1976 178.655 56.1345 178.238 56.076C175.157 59.5461 170.349 61.7779 164.948 61.7779C160.384 61.7779 156.244 60.1845 153.211 57.597Z" fill="#00306C"/>
<path d="M251.6 108.674C253.205 113.873 250.286 119.126 245.028 120.498L186.364 135.814C181.812 137.003 176.884 134.514 175.097 130.125C173.184 125.423 175.586 120.341 180.404 118.901L238.36 101.573C243.85 99.931 249.903 103.178 251.6 108.674Z" fill="#FDD2D5"/>
<path d="M147.35 166.479C147.35 166.479 106.88 202.696 99.585 212.847C93.0782 221.902 82.7266 301.743 82.7266 301.743" stroke="white" stroke-width="2.38857"/>
<path d="M14.9908 121.103C13.1629 117.697 43.7634 110.848 49.9248 109.508C66.3465 107.881 67.5656 121.65 56.0186 126.587C49.9165 128.413 23.7225 137.198 22.1014 134.957C21.0252 132.774 31.8569 129.855 37.643 127.908C31.9617 129.783 19.8423 133.438 18.576 130.922C17.4857 128.755 29.7472 124.568 36.0172 123.237C29.5497 124.36 17.6403 128.04 16.7982 125.869C15.956 123.698 28.706 120.846 33.5344 119.689C27.9753 120.499 16.1599 123.282 14.9908 121.103Z" fill="#FDD2D5"/>
<path d="M31.0089 114.377C24.967 115.942 14.0586 119.094 15.018 121.295C16.0619 123.689 28.2336 120.333 33.3329 119.18C28.2307 120.389 16.0483 123.946 17.0478 125.95C18.1946 127.627 28.8984 124.977 35.1253 123.397C28.9752 124.957 17.8735 128.785 19.0626 130.892C20.2328 133.357 31.3548 130.414 36.9994 128.166C31.3598 130.319 22.0293 133.202 22.7594 134.758C24.1036 137.622 40.0888 131.115 46.0477 129.071" stroke="#FBA5AB" stroke-width="1.59238" stroke-linecap="round" stroke-linejoin="round"/>
<path d="M35.9645 111.016C35.8132 113.248 47.3515 115.223 53.1396 115.932L52.2231 110.141C46.8666 109.503 36.1157 108.784 35.9645 111.016Z" fill="#FDD2D5"/>
<path d="M48.7676 115.576C43.0581 114.68 36.0292 113.295 36.2757 111.086C36.5222 108.878 47.4698 109.534 52.7543 110.345" stroke="#FBA5AB" stroke-width="1.59238" stroke-linecap="round" stroke-linejoin="round"/>
<path d="M155.752 128.102C163.158 126.754 170.737 131.571 175.534 131.512C179.836 131.459 181.682 130.82 184.674 128.595C190.02 124.619 185.917 122.082 180.536 119.343C170.284 114.125 151.3 120.939 145.601 124.586C143.36 126.019 144.922 127.586 144.922 127.586C144.922 127.586 145.133 128.445 145.981 129.091C147.254 130.06 149 129.33 155.752 128.102Z" fill="#FDD2D5"/>
<path d="M158.959 121.229C153.327 122.584 143.899 127.896 145.725 129.206C147.55 130.516 153.4 128.071 153.4 128.071" stroke="#FBA5AB" stroke-width="1.59238" stroke-linecap="round" stroke-linejoin="round"/>
<path d="M167.079 123.114C161.456 123.353 150.25 125.635 151.655 127.204C152.432 128.071 158.929 127.718 163.382 128.192C170.161 128.914 171.211 133.28 180.382 130.477" stroke="#FBA5AB" stroke-width="1.59238" stroke-linecap="round" stroke-linejoin="round"/>
<path d="M158.059 118.926C152.427 120.28 141.166 125.614 145.384 128.093" stroke="#FBA5AB" stroke-width="1.59238" stroke-linecap="round" stroke-linejoin="round"/>
<rect x="6.24512" y="131.623" width="196.836" height="13.5264" fill="#FFE412"/>
<path d="M211.806 107.171L248.14 95.4714C248.14 95.4714 220.511 60.9168 200.152 59.8285C197.418 65.5817 198.586 76.4256 198.586 76.4256C198.586 76.4256 203.663 100.369 211.806 107.171Z" fill="#00306C"/>
<path d="M132.649 111.333L102.884 98.4496C102.884 98.4496 120.557 61.7191 136.679 60.3485C139.386 66.1445 142.014 77.8915 142.014 77.8915C142.014 77.8915 140.71 104.48 132.649 111.333Z" fill="#00306C"/>
<path d="M215.531 104.049L210.195 93.6444" stroke="#FFE412" stroke-width="2.38857"/>
<path d="M131.343 108.732L129.564 96.7659" stroke="#FFE412" stroke-width="2.38857"/>
<rect x="70.4701" y="128.099" width="91.0484" height="3.28333" fill="#EAEAEA"/>
<path d="M117.242 84.3214H39.9129L57.3742 131.382H134.703L117.242 84.3214Z" fill="#EAEAEA"/>
<ellipse rx="7.17162" ry="6.32372" transform="matrix(1 0 0.205113 0.978738 85.1749 108.022)" fill="white"/>
<path d="M86.0606 104.569H83.2543C83.8779 105.937 84.8134 108.016 84.8134 108.673C84.8134 109.494 83.5661 109.494 82.9425 109.767L83.8779 111.683C84.8134 111.409 86.996 111.135 87.3078 109.767C87.636 108.327 86.6842 106.21 86.0606 104.569Z" fill="#EAEAEA"/>
</svg>
