<svg width="224" height="454" viewBox="0 0 224 454" fill="none" xmlns="http://www.w3.org/2000/svg">
<path d="M77.4737 0C51.5644 -0.000120353 51.9909 50.9845 51.9909 50.9845L108.176 52.5127C108.176 52.5127 116.683 0.000182134 77.4737 0Z" fill="#122B3A"/>
<mask id="mask0_111:245" style="mask-type:alpha" maskUnits="userSpaceOnUse" x="62" y="6" width="35" height="42">
<rect x="62.1832" y="6.17041" width="34.7568" height="41.6029" rx="17.3784" fill="#FDD2D5"/>
</mask>
<g mask="url(#mask0_111:245)">
<rect x="62.1832" y="6.17041" width="34.7568" height="41.6029" rx="17.3784" fill="#FDD2D5"/>
<path d="M75.3088 38.0612H81.8916L76.8887 40.9576" stroke="#E97E83" stroke-width="3" stroke-linejoin="round"/>
<circle cx="61.8335" cy="4.59055" r="15.2719" fill="#122B3A"/>
<circle cx="98.6968" cy="5.11713" r="22.118" fill="#122B3A"/>
</g>
<circle cx="97.73" cy="29.0783" r="3.94964" fill="#FDD2D5"/>
<circle cx="61.92" cy="28.0251" r="3.94964" fill="#FDD2D5"/>
<rect x="73.7688" y="41.9805" width="12.6389" height="18.9583" fill="#FDD2D5"/>
<path d="M79.101 30.1948L76.9946 33.8812H79.101" stroke="#E97E83" stroke-width="3" stroke-linejoin="round"/>
<circle cx="79.9758" cy="93.5889" r="39.4964" fill="#FDD2D5"/>
<path d="M119.505 170.342C119.505 192.321 101.687 210.139 79.7077 210.139C57.7283 210.139 39.9104 192.321 39.9104 170.342C39.9104 148.363 57.7283 130.545 79.7077 130.545C101.687 130.545 119.505 148.363 119.505 170.342Z" fill="#FFE412"/>
<path fill-rule="evenodd" clip-rule="evenodd" d="M119.001 76.7188C116.566 71.067 110.01 68.4595 104.358 70.8949C98.7061 73.3303 96.0987 79.8864 98.5341 85.5382L121.655 139.195C121.791 140.656 122.224 142.112 122.98 143.475C126.032 148.983 133.098 150.776 138.408 147.391L197.497 109.717L186.839 93.7143L138.519 122.014L119.001 76.7188Z" fill="#FDD2D5"/>
<path fill-rule="evenodd" clip-rule="evenodd" d="M57.3063 63.3066C62.3225 59.7412 69.2793 60.9172 72.8447 65.9335C76.4101 70.9497 75.234 77.9065 70.2178 81.4719L29.4622 110.44L54.4342 141.807C57.8188 146.058 57.1023 152.251 52.8363 155.617C48.7226 158.863 42.784 158.302 39.3504 154.344L5.49185 115.311C1.78651 111.039 1.98457 104.686 5.83208 100.654C6.53701 99.6602 7.41816 98.7661 8.4673 98.0204L57.3063 63.3066Z" fill="#FDD2D5"/>
<path d="M166.614 135.975L156.781 109.286C150.882 112.938 141.611 117.714 141.611 117.714C141.611 117.714 125.61 76.6816 112.126 65.6783C109.827 71.246 99.75 86.7431 99.75 86.7431C99.75 86.7431 114.921 132.604 123.35 146.651C131.778 160.698 160.809 140.45 166.614 135.975Z" fill="white"/>
<path d="M43.0006 126.704L17.1541 136.537C6.1974 125.3 -4.02704 112.095 1.59177 103.948C7.21058 95.8008 37.8089 71.7866 51.429 61.526C53.7277 67.0937 59.7252 86.6581 59.7252 86.6581L33.1677 114.624L43.0006 126.704Z" fill="white"/>
<path d="M31.7631 294.707C33.088 254.825 38.0542 199.704 40.8236 171.085C41.8687 160.285 50.9569 152.123 61.807 152.123C73.581 152.123 83.0996 161.717 83.0068 173.491L82.0515 294.707L76.7136 453.853H11.2545L24.4587 436.435C24.4587 436.435 29.4963 362.943 31.7631 294.707Z" fill="#FFE412"/>
<path fill-rule="evenodd" clip-rule="evenodd" d="M73.4224 52.1694C52.592 54.2371 37.3165 73.4998 40.6569 94.6745L42.1294 104.009C44.2838 117.666 53.5125 128.676 65.7234 133.542H93.977C106.357 128.608 115.661 117.361 117.65 103.475L118.998 94.0717C121.978 73.2697 107.05 54.5143 86.7106 52.2211C85.2323 54.2829 82.8155 55.6262 80.0849 55.6262C77.3315 55.6262 74.8972 54.2605 73.4224 52.1694Z" fill="white"/>
<path d="M57.8906 87.9343C57.8906 87.9343 47.2148 101.42 41.877 104.791M106.776 109.775L110.989 123.467" stroke="#CCCCCC" stroke-width="3"/>
<path d="M146.948 282.773C146.154 259.605 128.064 195.076 119.554 165.856C116.999 157.083 108.954 151.146 99.8161 151.146C87.1832 151.146 77.4842 162.343 79.2862 174.847L96.3788 293.449L85.7034 454H146.948L136.835 439.11C136.835 439.11 147.989 313.115 146.948 282.773Z" fill="#FFE412"/>
<path d="M62.6583 165.171C60.6308 166.248 54.4624 157.637 51.6317 153.197L57.3828 151.475C59.9861 155.592 64.6859 164.094 62.6583 165.171Z" fill="#FDD2D5"/>
<path d="M53.6025 156.628C56.5782 160.924 60.5056 166.091 62.4755 164.946C64.4454 163.801 59.7312 155.111 56.9934 151.127" stroke="#FBA5AB" stroke-width="2" stroke-linecap="round" stroke-linejoin="round"/>
<path d="M45.4767 184.786C48.9716 186.44 56.0537 158.881 57.4391 153.332C59.1359 138.539 45.0006 137.416 39.9122 147.81C38.0276 153.305 28.9654 176.889 31.2628 178.354C33.5032 179.328 36.5176 169.574 38.5263 164.364C36.5919 169.48 32.8192 180.392 35.4011 181.538C37.6241 182.524 41.9428 171.485 43.3196 165.838C42.1564 171.663 38.3583 182.386 40.586 183.149C42.8137 183.912 45.7631 172.43 46.9587 168.081C46.1183 173.089 43.2413 183.729 45.4767 184.786Z" fill="#FDD2D5"/>
<path d="M52.4089 170.367C50.7922 175.808 47.5384 185.63 45.28 184.762C42.8227 183.817 46.2888 172.856 47.481 168.264C46.2315 172.859 42.5597 183.829 40.5028 182.924C38.7834 181.888 41.5218 172.249 43.1543 166.641C41.5419 172.18 37.5934 182.175 35.4326 181.1C32.9027 180.041 35.9424 170.026 38.2598 164.944C36.04 170.021 33.0653 178.423 31.469 177.762C28.5301 176.545 35.2371 162.155 37.3462 156.79" stroke="#FBA5AB" stroke-width="2" stroke-linecap="round" stroke-linejoin="round"/>
<path d="M192.255 85.4426C194.339 86.4063 191.21 96.5257 189.385 101.465L184.536 97.9252C186.241 93.3628 190.172 84.4788 192.255 85.4426Z" fill="#FDD2D5"/>
<path d="M211.626 88.2193C210.83 84.436 184.597 95.4574 179.34 97.7089C166.531 105.302 174.183 117.24 185.539 115.008C191.055 113.187 215.319 106.145 215.097 103.43C214.518 101.057 204.926 104.553 199.562 106.103C204.806 104.551 215.779 100.958 215.131 98.2087C214.572 95.8417 203.168 99.0767 197.838 101.394C203.181 98.7987 214.018 95.3403 213.279 93.1047C212.54 90.8691 201.611 95.4624 197.424 97.1391C201.921 94.7811 212.136 90.6391 211.626 88.2193Z" fill="#FDD2D5"/>
<path d="M190.926 97.8209C192.549 92.8534 194.29 86.6005 192.187 85.7238C190.084 84.8471 186.012 93.8564 184.495 98.4457" stroke="#FBA5AB" stroke-width="2" stroke-linecap="round" stroke-linejoin="round"/>
<path d="M195.95 91.4161C201.261 89.4141 211.052 86.0668 211.726 88.3907C212.459 90.9194 201.633 94.7856 197.254 96.6126C201.67 94.8297 212.627 91.1218 213.15 93.3069C213.365 95.303 204.031 98.9499 198.578 101.04C203.964 98.9757 214.313 96.0772 214.763 98.4485C215.449 101.104 205.634 104.738 200.185 105.965C205.571 104.663 214.062 101.953 214.501 103.624C215.309 106.7 199.791 110.059 194.242 111.623" stroke="#FBA5AB" stroke-width="2" stroke-linecap="round" stroke-linejoin="round"/>
</svg>
