<svg width="1440" height="653" viewBox="0 0 1440 653" fill="none" xmlns="http://www.w3.org/2000/svg">
<path d="M0 653H1439V0H0V653Z" fill="url(#paint0_linear)"/>
<rect x="73.3369" y="375.423" width="73.3365" height="74.7577" fill="#D4E2FE" fill-opacity="0.08"/>
<rect width="34.0651" height="33.3943" transform="matrix(-4.28804e-08 1 1 4.45585e-08 43.2158 502.935)" fill="#D4E2FE" fill-opacity="0.08"/>
<rect width="34.0651" height="33.3943" transform="matrix(-4.28804e-08 1 1 4.45585e-08 76.6104 468.87)" fill="#D4E2FE" fill-opacity="0.08"/>
<rect width="73.4013" height="74.8238" transform="matrix(-1 0 0 1 73.4014 302)" fill="#D4E2FE" fill-opacity="0.08"/>
<mask id="mask0" mask-type="alpha" maskUnits="userSpaceOnUse" x="1" y="2" width="1440" height="652">
<rect width="1440" height="651" transform="matrix(1 0 0 -1 1 653)" fill="#3069D7"/>
</mask>
<g mask="url(#mask0)">
<g opacity="0.2" filter="url(#filter0_f)">
<circle cx="425" cy="620" r="106" fill="#7BA7FC"/>
</g>
<g opacity="0.4" filter="url(#filter1_f)">
<circle cx="1" cy="-19.9999" r="213" fill="#7BA7FC"/>
</g>
<g opacity="0.4" filter="url(#filter2_f)">
<circle cx="956" cy="-110" r="213" fill="#7BA7FC"/>
</g>
<g opacity="0.4" filter="url(#filter3_f)">
<circle cx="1380.5" cy="668.5" r="116.5" fill="#7BA7FC"/>
</g>
</g>
<rect x="1329.21" y="140.95" width="65.2142" height="65.2142" transform="rotate(-180 1329.21 140.95)" fill="#D4E2FE" fill-opacity="0.08"/>
<rect width="29.7164" height="29.6957" transform="matrix(4.37114e-08 -1 -1 -4.37114e-08 1356 29.7164)" fill="#D4E2FE" fill-opacity="0.08"/>
<rect width="29.7164" height="29.6957" transform="matrix(4.37114e-08 -1 -1 -4.37114e-08 1326.3 59.4328)" fill="#D4E2FE" fill-opacity="0.08"/>
<rect width="65.2718" height="65.2718" transform="matrix(1 0 0 -1 1329.16 205)" fill="#D4E2FE" fill-opacity="0.08"/>
<defs>
<filter id="filter0_f" x="269.312" y="464.313" width="311.375" height="311.375" filterUnits="userSpaceOnUse" color-interpolation-filters="sRGB">
<feFlood flood-opacity="0" result="BackgroundImageFix"/>
<feBlend mode="normal" in="SourceGraphic" in2="BackgroundImageFix" result="shape"/>
<feGaussianBlur stdDeviation="24.8438" result="effect1_foregroundBlur"/>
</filter>
<filter id="filter1_f" x="-311.844" y="-332.844" width="625.688" height="625.688" filterUnits="userSpaceOnUse" color-interpolation-filters="sRGB">
<feFlood flood-opacity="0" result="BackgroundImageFix"/>
<feBlend mode="normal" in="SourceGraphic" in2="BackgroundImageFix" result="shape"/>
<feGaussianBlur stdDeviation="49.9219" result="effect1_foregroundBlur"/>
</filter>
<filter id="filter2_f" x="643.156" y="-422.844" width="625.688" height="625.688" filterUnits="userSpaceOnUse" color-interpolation-filters="sRGB">
<feFlood flood-opacity="0" result="BackgroundImageFix"/>
<feBlend mode="normal" in="SourceGraphic" in2="BackgroundImageFix" result="shape"/>
<feGaussianBlur stdDeviation="49.9219" result="effect1_foregroundBlur"/>
</filter>
<filter id="filter3_f" x="1209.39" y="497.391" width="342.219" height="342.219" filterUnits="userSpaceOnUse" color-interpolation-filters="sRGB">
<feFlood flood-opacity="0" result="BackgroundImageFix"/>
<feBlend mode="normal" in="SourceGraphic" in2="BackgroundImageFix" result="shape"/>
<feGaussianBlur stdDeviation="27.3047" result="effect1_foregroundBlur"/>
</filter>
<linearGradient id="paint0_linear" x1="719.5" y1="653" x2="703.949" y2="87.9195" gradientUnits="userSpaceOnUse">
<stop stop-color="#3970DA"/>
<stop offset="1" stop-color="#1457D8"/>
</linearGradient>
</defs>
</svg>
